<svg width="709" height="801" viewBox="0 0 709 801" fill="none" xmlns="http://www.w3.org/2000/svg">
<rect width="708" height="800" transform="translate(0.5 0.899414)" fill="#EFF5FB"/>
<mask id="mask0_1171_99121" style="mask-type:alpha" maskUnits="userSpaceOnUse" x="220" y="383" width="277" height="79">
<path d="M220.775 383.063H496.203V461.588H220.775V383.063Z" fill="white"/>
</mask>
<g mask="url(#mask0_1171_99121)">
<path fill-rule="evenodd" clip-rule="evenodd" d="M295.466 456.885C272.049 456.885 248.83 448.588 228.977 432.673L225.478 429.86L261.288 389.427C262.041 388.577 263.101 388.061 264.234 387.992C265.367 387.923 266.482 388.307 267.332 389.06C268.182 389.813 268.698 390.872 268.767 392.006C268.836 393.139 268.452 394.254 267.699 395.104L237.904 428.736C262.925 447.187 293.138 452.948 321.465 444.525L356.133 434.201L390.8 444.525C419.113 452.948 449.321 447.187 474.347 428.75L444.176 394.897C443.422 394.048 443.035 392.935 443.101 391.802C443.167 390.668 443.681 389.608 444.529 388.853C445.377 388.098 446.49 387.712 447.624 387.778C448.757 387.844 449.818 388.358 450.572 389.206L486.796 429.855L483.283 432.677C455.365 455.064 420.768 462.373 388.359 452.727L356.133 443.137L323.906 452.732C314.677 455.486 305.098 456.887 295.466 456.889" fill="black"/>
<path d="M295.466 456.885C272.049 456.885 248.83 448.588 228.977 432.673L225.478 429.86L261.288 389.427C262.041 388.577 263.101 388.061 264.234 387.992C265.367 387.923 266.482 388.307 267.332 389.06C268.182 389.813 268.698 390.872 268.767 392.006C268.836 393.139 268.452 394.254 267.699 395.104L237.904 428.736C262.925 447.187 293.138 452.948 321.465 444.525L356.133 434.201L390.8 444.525C419.113 452.948 449.321 447.187 474.347 428.75L444.176 394.897C443.422 394.048 443.035 392.935 443.101 391.802C443.167 390.668 443.681 389.608 444.529 388.853C445.377 388.098 446.49 387.712 447.624 387.778C448.757 387.844 449.818 388.358 450.572 389.206L486.796 429.855L483.283 432.677C455.365 455.064 420.768 462.373 388.359 452.727L356.133 443.137L323.906 452.732C314.677 455.486 305.098 456.887 295.466 456.889" stroke="black" stroke-width="1.23245" stroke-linejoin="round"/>
</g>
<path fill-rule="evenodd" clip-rule="evenodd" d="M356.124 438.89L285.59 398.189C277.766 392.516 271.42 385.046 267.088 376.407C262.755 367.768 260.563 358.215 260.696 348.551L261.293 306.891L289.498 316.156C290.041 316.323 290.545 316.597 290.981 316.961C291.417 317.325 291.776 317.773 292.037 318.277C292.298 318.782 292.455 319.333 292.501 319.9C292.546 320.466 292.478 321.035 292.301 321.575C292.124 322.115 291.841 322.614 291.469 323.043C291.097 323.472 290.643 323.822 290.134 324.074C289.624 324.326 289.07 324.473 288.503 324.509C287.936 324.544 287.368 324.465 286.832 324.278L269.684 318.653L269.251 348.674C269.138 356.927 271.003 365.088 274.688 372.474C278.373 379.859 283.772 386.256 290.434 391.129L356.152 429.028L422.655 391.12C429.349 386.254 434.776 379.85 438.479 372.449C442.182 365.047 444.052 356.864 443.932 348.589L443.509 318.597L423.967 324.829C422.886 325.173 421.711 325.075 420.703 324.554C419.694 324.033 418.934 323.133 418.589 322.051C418.244 320.97 418.343 319.796 418.864 318.787C419.385 317.779 420.285 317.018 421.366 316.673L451.904 306.942L452.487 348.471C452.624 358.158 450.422 367.736 446.068 376.39C441.714 385.044 435.336 392.521 427.476 398.184L427.095 398.429L356.119 438.885L356.124 438.89Z" fill="black" stroke="black" stroke-width="1.23245" stroke-linecap="round" stroke-linejoin="round"/>
<path fill-rule="evenodd" clip-rule="evenodd" d="M356.316 370.924L296.831 336.92L356.316 421.013L414.495 336.92L356.316 370.924Z" fill="black"/>
<path fill-rule="evenodd" clip-rule="evenodd" d="M356.317 225.483L298.688 321.621L356.199 356.519L414.5 322.091L356.317 225.483Z" fill="black"/>
<mask id="mask1_1171_99121" style="mask-type:alpha" maskUnits="userSpaceOnUse" x="200" y="338" width="59" height="68">
<path d="M200.5 338.068H258.49V405.093H200.5V338.068Z" fill="white"/>
</mask>
<g mask="url(#mask1_1171_99121)">
<path fill-rule="evenodd" clip-rule="evenodd" d="M237.392 400.39C236.423 400.388 235.483 400.058 234.726 399.453C233.969 398.848 233.44 398.005 233.225 397.06C230.384 384.573 222.36 371.258 210.029 358.55L205.203 353.593L211.802 351.495C226.358 346.868 239.08 346.237 250.692 349.591C251.782 349.905 252.703 350.64 253.252 351.633C253.8 352.626 253.932 353.796 253.618 354.886C253.303 355.977 252.569 356.897 251.576 357.446C250.582 357.995 249.412 358.126 248.322 357.812C239.997 355.413 231.183 355.394 220.978 357.812C231.701 370.087 238.779 382.894 241.573 395.165C241.712 395.792 241.709 396.442 241.564 397.068C241.418 397.694 241.134 398.279 240.732 398.78C240.331 399.282 239.822 399.687 239.243 399.965C238.664 400.244 238.029 400.389 237.387 400.39" fill="black"/>
<path d="M237.392 400.39C236.423 400.388 235.483 400.058 234.726 399.453C233.969 398.848 233.44 398.005 233.225 397.06C230.384 384.573 222.36 371.258 210.029 358.55L205.203 353.593L211.802 351.495C226.358 346.868 239.08 346.237 250.692 349.591C251.782 349.905 252.703 350.64 253.252 351.633C253.8 352.626 253.932 353.796 253.618 354.886C253.303 355.977 252.569 356.897 251.576 357.446C250.582 357.995 249.412 358.126 248.322 357.812C239.997 355.413 231.183 355.394 220.978 357.812C231.701 370.087 238.779 382.894 241.573 395.165C241.712 395.792 241.709 396.442 241.564 397.068C241.418 397.694 241.134 398.279 240.732 398.78C240.331 399.282 239.822 399.687 239.243 399.965C238.664 400.244 238.029 400.389 237.387 400.39" stroke="black" stroke-width="1.23245" stroke-linecap="round" stroke-linejoin="round"/>
</g>
<path fill-rule="evenodd" clip-rule="evenodd" d="M475.307 400.39C474.664 400.389 474.03 400.244 473.45 399.965C472.871 399.687 472.362 399.281 471.961 398.779C471.56 398.277 471.277 397.69 471.133 397.064C470.99 396.438 470.988 395.787 471.13 395.16C473.929 382.889 481.007 370.087 491.726 357.812C481.52 355.394 472.711 355.413 464.381 357.812C463.842 357.968 463.277 358.017 462.718 357.955C462.16 357.892 461.62 357.72 461.128 357.448C460.636 357.177 460.203 356.81 459.854 356.371C459.504 355.931 459.244 355.427 459.09 354.886C458.933 354.347 458.884 353.782 458.946 353.224C459.008 352.666 459.179 352.126 459.45 351.634C459.721 351.142 460.086 350.708 460.524 350.358C460.963 350.007 461.467 349.746 462.006 349.591C473.623 346.237 486.35 346.868 500.901 351.495L507.5 353.593L502.679 358.55C490.343 371.254 482.324 384.568 479.478 397.06C479.263 398.005 478.734 398.848 477.977 399.453C477.22 400.058 476.28 400.388 475.311 400.39" fill="black"/>
<path d="M475.307 400.39C474.664 400.389 474.03 400.244 473.45 399.966C472.871 399.687 472.362 399.281 471.961 398.779C471.56 398.277 471.277 397.69 471.133 397.064C470.99 396.438 470.988 395.787 471.13 395.16C473.929 382.889 481.007 370.087 491.726 357.812C481.52 355.394 472.711 355.413 464.381 357.812C463.842 357.968 463.277 358.017 462.718 357.955C462.16 357.892 461.62 357.72 461.128 357.448C460.636 357.177 460.203 356.81 459.854 356.371C459.504 355.931 459.244 355.427 459.09 354.886C458.933 354.347 458.884 353.782 458.946 353.224C459.008 352.666 459.179 352.126 459.45 351.634C459.721 351.142 460.086 350.708 460.524 350.358C460.963 350.007 461.467 349.746 462.006 349.591C473.623 346.237 486.35 346.868 500.901 351.495L507.5 353.593L502.679 358.55C490.343 371.254 482.324 384.568 479.478 397.06C479.263 398.005 478.734 398.848 477.977 399.453C477.22 400.058 476.28 400.388 475.311 400.39" stroke="black" stroke-width="1.23245"/>
<path fill-rule="evenodd" clip-rule="evenodd" d="M288.078 307.493C287.475 307.494 286.879 307.367 286.329 307.122C285.778 306.877 285.286 306.518 284.884 306.069C284.482 305.62 284.18 305.091 283.997 304.517C283.814 303.943 283.754 303.336 283.821 302.738L287.227 272.294L308.555 286.836C309.464 287.487 310.083 288.467 310.279 289.568C310.474 290.668 310.232 291.801 309.603 292.725C308.973 293.649 308.008 294.291 306.912 294.512C305.817 294.733 304.678 294.517 303.739 293.91L294.15 287.372L292.325 303.688C292.208 304.733 291.711 305.699 290.927 306.4C290.144 307.102 289.13 307.491 288.078 307.493Z" fill="black"/>
<path d="M288.078 307.493C287.475 307.494 286.879 307.367 286.329 307.122C285.778 306.877 285.286 306.518 284.884 306.069C284.482 305.62 284.18 305.091 283.997 304.517C283.814 303.943 283.754 303.336 283.821 302.738L287.227 272.294L308.555 286.836C309.464 287.487 310.083 288.467 310.279 289.568C310.474 290.668 310.232 291.801 309.603 292.725C308.973 293.649 308.008 294.291 306.912 294.512C305.817 294.733 304.678 294.517 303.739 293.91L294.15 287.372L292.325 303.688C292.208 304.733 291.711 305.699 290.927 306.4C290.144 307.102 289.13 307.491 288.078 307.493" stroke="black" stroke-width="1.23245" stroke-linejoin="round"/>
<path fill-rule="evenodd" clip-rule="evenodd" d="M423.196 307.493C422.156 307.492 421.152 307.112 420.373 306.423C419.594 305.735 419.092 304.786 418.963 303.754L416.865 287.307L407.186 293.91C406.248 294.55 405.094 294.79 403.979 294.579C402.864 294.368 401.878 293.722 401.239 292.784C400.6 291.846 400.359 290.692 400.57 289.577C400.782 288.462 401.427 287.476 402.365 286.837L423.595 272.36L427.447 302.677C427.523 303.28 427.47 303.892 427.291 304.473C427.112 305.054 426.812 305.59 426.41 306.046C426.007 306.501 425.513 306.866 424.959 307.116C424.404 307.365 423.803 307.494 423.196 307.493Z" fill="black"/>
<path d="M423.196 307.493C422.156 307.492 421.152 307.112 420.373 306.423C419.594 305.735 419.092 304.786 418.963 303.754L416.865 287.307L407.186 293.91C406.248 294.55 405.094 294.79 403.979 294.579C402.864 294.368 401.878 293.722 401.239 292.784C400.6 291.846 400.359 290.692 400.57 289.577C400.782 288.462 401.427 287.476 402.365 286.837L423.595 272.36L427.447 302.677C427.523 303.28 427.47 303.892 427.291 304.473C427.112 305.054 426.812 305.59 426.41 306.046C426.007 306.501 425.513 306.866 424.959 307.116C424.404 307.365 423.803 307.494 423.196 307.493" stroke="black" stroke-width="1.23245" stroke-linecap="round" stroke-linejoin="round"/>
<path fill-rule="evenodd" clip-rule="evenodd" d="M331.639 501.742V525.397H303.48V501.746H208.844V557.875H252.08V549.056H220.364V534.218H252.082V525.399H220.364V510.566H266.319V557.875H277.834V510.566H291.96V557.875H303.478V534.218H331.639V557.873H343.154V501.746L331.639 501.742Z" fill="black"/>
<mask id="mask2_1171_99121" style="mask-type:alpha" maskUnits="userSpaceOnUse" x="209" y="475" width="293" height="102">
<path d="M209.426 576.314H501.655V475.1H209.426V576.314Z" fill="white"/>
</mask>
<g mask="url(#mask2_1171_99121)">
<path fill-rule="evenodd" clip-rule="evenodd" d="M350.768 557.874H359.89V501.561H350.768V557.874Z" fill="black"/>
</g>
<mask id="mask3_1171_99121" style="mask-type:alpha" maskUnits="userSpaceOnUse" x="209" y="475" width="293" height="102">
<path d="M209.426 576.314H501.655V475.1H209.426V576.314Z" fill="white"/>
</mask>
<g mask="url(#mask3_1171_99121)">
<path fill-rule="evenodd" clip-rule="evenodd" d="M367.922 519.743H376.771V523.266C379.851 520.213 383.322 518.687 387.184 518.687C391.621 518.687 395.079 520.083 397.557 522.876C399.699 525.249 400.77 529.125 400.77 534.503V557.874H391.923V536.579C391.923 532.821 391.398 530.225 390.357 528.789C389.334 527.327 387.482 526.597 384.794 526.597C381.871 526.597 379.796 527.563 378.568 529.494C377.367 531.399 376.768 534.727 376.768 539.477V557.878H367.92V519.743H367.922Z" fill="black"/>
</g>
<mask id="mask4_1171_99121" style="mask-type:alpha" maskUnits="userSpaceOnUse" x="209" y="475" width="293" height="102">
<path d="M209.426 576.314H501.655V475.1H209.426V576.314Z" fill="white"/>
</mask>
<g mask="url(#mask4_1171_99121)">
<path d="M413.478 538.69C413.478 542.346 414.459 545.322 416.416 547.617C418.423 549.941 420.956 551.102 424.011 551.102C427.272 551.102 429.907 549.981 431.919 547.736C433.928 545.412 434.934 542.466 434.934 538.888C434.934 535.312 433.926 532.361 431.919 530.039C429.907 527.771 427.299 526.633 424.091 526.633C421.058 526.633 418.526 527.781 416.496 530.077C414.484 532.401 413.478 535.274 413.478 538.69ZM434.384 501.561H443.233V557.876H434.384V553.883C430.915 557.278 426.986 558.975 422.602 558.975C417.38 558.975 413.048 557.068 409.602 553.257C406.179 549.368 404.474 544.513 404.474 538.692C404.474 533.004 406.181 528.256 409.602 524.443C412.995 520.606 417.262 518.689 422.404 518.689C426.869 518.689 430.861 520.516 434.384 524.17V501.559V501.561Z" fill="black"/>
</g>
<mask id="mask5_1171_99121" style="mask-type:alpha" maskUnits="userSpaceOnUse" x="209" y="475" width="293" height="102">
<path d="M209.426 576.314H501.655V475.1H209.426V576.314Z" fill="white"/>
</mask>
<g mask="url(#mask5_1171_99121)">
<path d="M449.541 557.874H458.35V519.74H449.541V557.874ZM448.209 507.24C448.209 505.699 448.77 504.367 449.894 503.246C450.415 502.705 451.042 502.276 451.736 501.986C452.43 501.697 453.176 501.552 453.927 501.562C455.517 501.562 456.873 502.125 457.997 503.246C459.118 504.342 459.681 505.686 459.681 507.278C459.681 508.869 459.118 510.228 457.997 511.349C457.478 511.894 456.852 512.326 456.158 512.616C455.464 512.905 454.717 513.048 453.965 513.033C453.207 513.046 452.455 512.903 451.755 512.613C451.055 512.323 450.421 511.893 449.894 511.349C448.77 510.228 448.209 508.859 448.209 507.24Z" fill="black"/>
</g>
<mask id="mask6_1171_99121" style="mask-type:alpha" maskUnits="userSpaceOnUse" x="209" y="475" width="293" height="102">
<path d="M209.426 576.314H501.655V475.1H209.426V576.314Z" fill="white"/>
</mask>
<g mask="url(#mask6_1171_99121)">
<path d="M471.9 538.69C471.9 542.345 472.879 545.321 474.836 547.616C476.845 549.94 479.38 551.102 482.433 551.102C485.694 551.102 488.333 549.98 490.339 547.736C492.348 545.411 493.356 542.465 493.356 538.887C493.356 535.311 492.348 532.361 490.339 530.038C488.331 527.77 485.721 526.632 482.511 526.632C479.483 526.632 476.95 527.781 474.915 530.076C472.906 532.4 471.9 535.273 471.9 538.69ZM492.806 519.743H501.655V557.876H492.806V553.88C489.18 557.275 485.276 558.972 481.102 558.972C475.827 558.972 471.47 557.065 468.022 553.254C464.605 549.365 462.898 544.51 462.898 538.69C462.898 532.974 464.605 528.211 468.022 524.4C471.444 520.589 475.722 518.688 480.866 518.688C485.303 518.688 489.283 520.511 492.806 524.165V519.743Z" fill="black"/>
</g>
</svg>
